<svg xmlns="http://www.w3.org/2000/svg" viewBox="0 0 1000 1250" preserveAspectRatio="xMidYMid slice">
  <defs>
    <radialGradient id="bg-n" cx="0.5" cy="0.38" r="0.85">
      <stop offset="0" stop-color="#f5f0ea"/>
      <stop offset="1" stop-color="#ddd3c7"/>
    </radialGradient>
    <filter id="bl-n" x="-50%" y="-50%" width="200%" height="200%"><feGaussianBlur stdDeviation="22"/></filter>
    <filter id="bs-n" x="-20%" y="-20%" width="140%" height="140%"><feGaussianBlur stdDeviation="5"/></filter>
    <filter id="gr-n" x="0" y="0" width="100%" height="100%">
      <feTurbulence type="fractalNoise" baseFrequency="0.9" numOctaves="2" seed="3"/>
      <feColorMatrix type="saturate" values="0"/>
      <feComponentTransfer><feFuncA type="table" tableValues="0 0.05"/></feComponentTransfer>
      <feComposite in2="SourceGraphic" operator="in"/>
    </filter>
  </defs>
  <rect width="1000" height="1250" fill="url(#bg-n)"/>
  <defs><radialGradient id="cl-n" cx="0.4" cy="0.3" r="0.8"><stop offset="0" stop-color="#ffffff"/><stop offset="1" stop-color="#E6E1D9"/></radialGradient></defs><ellipse cx="500" cy="860.0" rx="363.00000000000006" ry="41.800000000000004" fill="#4d3b30" opacity="0.2" filter="url(#bl-n)"/><rect x="368.0" y="772.0" width="28.6" height="77.0" rx="14.3" fill="#3a3633"/><rect x="604.5" y="772.0" width="28.6" height="77.0" rx="14.3" fill="#3a3633"/><path d="M 214.0 772.0 C 103.99999999999994 761.0, 92.99999999999994 618.0, 192.0 596.0 C 170.0 475.0, 313.0 420.0, 390.0 497.0 C 423.0 354.0, 632.0 343.0, 654.0 497.0 C 753.0 442.0, 863.0 541.0, 819.0 629.0 C 918.0 662.0, 907.0 783.0, 797.0 783.0 C 610.0 821.5, 390.0 821.5, 214.0 772.0 Z" fill="url(#cl-n)"/><circle cx="423.0" cy="629.0" r="12.100000000000001" fill="#3a3633"/><circle cx="577.0" cy="629.0" r="12.100000000000001" fill="#3a3633"/><path d="M 467.0 673.0 Q 500 700.5 533.0 673.0" stroke="#3a3633" stroke-width="6.6000000000000005" fill="none" stroke-linecap="round"/><ellipse cx="368.0" cy="667.5" rx="28.6" ry="13.200000000000001" fill="#F2C9C3" opacity="0.6"/><ellipse cx="632.0" cy="667.5" rx="28.6" ry="13.200000000000001" fill="#F2C9C3" opacity="0.6"/>
  <rect width="1000" height="1250" fill="#fff" filter="url(#gr-n)"/>
</svg>
